<svg class="border shadow-md" viewBox="0 0 1093.84 546.92" style="width: 1093.84px; height: 546.92px;" xmlns="http://www.w3.org/2000/svg" preserveAspectRatio="none"><rect class="bg" id="bg" x="0" y="0" width="1093.84" height="546.92" fill="#ffffff"/><path d="M 0 -68.365 L 0 -68.36&#10;                L 121.54 -34.18&#10;                L 364.6133333333333 -68.36 L 364.6133333333333 -68.36&#10;                L 486.15 -34.18&#10;                L 729.2266666666666 -68.36 L 729.2266666666666 -68.36&#10;                L 907.23 -34.18&#10;                L 1093.84 -68.36 L 1093.84 -68.36&#10;                L 1215.38 -34.18&#10;                L 1458.4533333333331 -68.36  V 546.92 H 0 V -68.36 Z" fill="#ECD79D"/><path d="M 0 0 L 0 0.00&#10;                L 121.54 34.18&#10;                L 364.6133333333333 0.00 L 364.6133333333333 0.00&#10;                L 604.61 34.18&#10;                L 729.2266666666666 0.00 L 729.2266666666666 0.00&#10;                L 891.23 34.18&#10;                L 1093.84 0.00 L 1093.84 0.00&#10;                L 1215.38 34.18&#10;                L 1458.4533333333331 0.00  V 546.92 H 0 V 0.00 Z" fill="#eddba6"/><path d="M 0 68.365 L 0 68.36&#10;                L 121.54 102.55&#10;                L 364.6133333333333 68.36 L 364.6133333333333 68.36&#10;                L 486.15 102.55&#10;                L 729.2266666666666 68.36 L 729.2266666666666 68.36&#10;                L 850.76 117.36&#10;                L 1093.84 68.36 L 1093.84 68.36&#10;                L 1259.84 102.55&#10;                L 1458.4533333333331 68.36  V 546.92 H 0 V 68.36 Z" fill="#eedfaf"/><path d="M 0 136.73 L 0 136.73&#10;                L 121.54 194.73&#10;                L 364.6133333333333 136.73 L 364.6133333333333 136.73&#10;                L 524.61 196.73&#10;                L 729.2266666666666 136.73 L 729.2266666666666 136.73&#10;                L 875.23 201.73&#10;                L 1093.84 136.73 L 1093.84 136.73&#10;                L 1215.38 183.73&#10;                L 1458.4533333333331 136.73  V 546.92 H 0 V 136.73 Z" fill="#efe3b8"/><path d="M 0 205.09499999999997 L 0 205.09&#10;                L 205.00 239.28&#10;                L 364.6133333333333 205.09 L 364.6133333333333 205.09&#10;                L 516.61 239.28&#10;                L 729.2266666666666 205.09 L 729.2266666666666 205.09&#10;                L 850.76 239.28&#10;                L 1093.84 205.09 L 1093.84 205.09&#10;                L 1215.38 239.28&#10;                L 1458.4533333333331 205.09  V 546.92 H 0 V 205.09 Z" fill="#f0e7c1"/><path d="M 0 273.46 L 0 273.46&#10;                L 121.54 307.64&#10;                L 364.6133333333333 273.46 L 364.6133333333333 273.46&#10;                L 561.61 307.64&#10;                L 729.2266666666666 273.46 L 729.2266666666666 273.46&#10;                L 850.76 329.46&#10;                L 1093.84 273.46 L 1093.84 273.46&#10;                L 1215.38 307.64&#10;                L 1458.4533333333331 273.46  V 546.92 H 0 V 273.46 Z" fill="#f1ebca"/><path d="M 0 341.825 L 0 341.82&#10;                L 121.54 376.01&#10;                L 364.6133333333333 341.82 L 364.6133333333333 341.82&#10;                L 537.61 384.82&#10;                L 729.2266666666666 341.82 L 729.2266666666666 341.82&#10;                L 850.76 384.82&#10;                L 1093.84 341.82 L 1093.84 341.82&#10;                L 1324.84 376.01&#10;                L 1458.4533333333331 341.82  V 546.92 H 0 V 341.82 Z" fill="#f2efd3"/><path d="M 0 410.18999999999994 L 0 410.19&#10;                L 147.00 451.19&#10;                L 364.6133333333333 410.19 L 364.6133333333333 410.19&#10;                L 534.61 446.19&#10;                L 729.2266666666666 410.19 L 729.2266666666666 410.19&#10;                L 850.76 444.37&#10;                L 1093.84 410.19 L 1093.84 410.19&#10;                L 1361.84 444.37&#10;                L 1458.4533333333331 410.19  V 546.92 H 0 V 410.19 Z" fill="#f3f3dc"/><path d="M 0 478.55499999999995 L 0 478.55&#10;                L 121.54 512.74&#10;                L 364.6133333333333 478.55 L 364.6133333333333 478.55&#10;                L 524.61 512.74&#10;                L 729.2266666666666 478.55 L 729.2266666666666 478.55&#10;                L 850.76 544.55&#10;                L 1093.84 478.55 L 1093.84 478.55&#10;                L 1254.84 518.55&#10;                L 1458.4533333333331 478.55  V 546.92 H 0 V 478.55 Z" fill="#f4f7e5"/></svg>